<svg xmlns="http://www.w3.org/2000/svg" viewBox="0 0 697.95 138.56"><defs><style>.cls-1{fill:#19fc00;}</style></defs><title>progress</title><g id="Layer_2" data-name="Layer 2"><path class="cls-1" d="M1912.33,848.77a25.59,25.59,0,0,1,25.52,25.51v51.54a25.59,25.59,0,0,1-25.52,25.52H1301.41a25.59,25.59,0,0,1-25.51-25.52V874.28a25.59,25.59,0,0,1,25.51-25.51h610.92m0-18H1301.41a43.56,43.56,0,0,0-43.51,43.51v51.54a43.56,43.56,0,0,0,43.51,43.52h610.92a43.57,43.57,0,0,0,43.52-43.52V874.28a43.56,43.56,0,0,0-43.52-43.51Z" transform="translate(-1257.9 -830.77)"/></g><g id="Entire_bar" data-name="Entire bar"><path class="cls-1" d="M1721.85,936.16H1312.79A19.85,19.85,0,0,1,1293,916.31V883.79A19.84,19.84,0,0,1,1312.79,864h409.06Z" transform="translate(-1257.9 -830.77)"/></g></svg>